<?xml version="1.0" encoding="UTF-8" standalone="no"?>
<!DOCTYPE svg PUBLIC "-//W3C//DTD SVG 1.1//EN"
 "http://www.w3.org/Graphics/SVG/1.1/DTD/svg11.dtd">
<!-- Generated by graphviz version 2.42.3 (20191010.1750)
 -->
<!-- Title: linkcheck.checker classes Pages: 1 -->
<svg width="858pt" height="191pt"
 viewBox="0.00 0.00 858.00 191.00" xmlns="http://www.w3.org/2000/svg" xmlns:xlink="http://www.w3.org/1999/xlink">
<g id="graph0" class="graph" transform="scale(1 1) rotate(0) translate(4 187)">
<title>linkcheck.checker classes</title>
<polygon fill="white" stroke="transparent" points="-4,4 -4,-187 854,-187 854,4 -4,4"/>
<!-- 1 -->
<g id="node1" class="node">
<title>1</title>
<g id="a_node1"><a xlink:href="../code/linkcheck/linkcheck.checker.dnsurl.html" xlink:title="DnsUrl" target="_blank">
<polygon fill="none" stroke="black" points="596.5,-73.5 596.5,-109.5 652.5,-109.5 652.5,-73.5 596.5,-73.5"/>
<text text-anchor="middle" x="624.5" y="-87.8" font-family="Times,serif" font-size="14.00">DnsUrl</text>
</a>
</g>
</g>
<!-- 13 -->
<g id="node13" class="node">
<title>13</title>
<g id="a_node13"><a xlink:href="../code/linkcheck/linkcheck.checker.urlbase.html" xlink:title="UrlBase" target="_blank">
<polygon fill="none" stroke="black" points="446,-146.5 446,-182.5 507,-182.5 507,-146.5 446,-146.5"/>
<text text-anchor="middle" x="476.5" y="-160.8" font-family="Times,serif" font-size="14.00">UrlBase</text>
</a>
</g>
</g>
<!-- 1&#45;&gt;13 -->
<g id="edge1" class="edge">
<title>1&#45;&gt;13</title>
<path fill="none" stroke="black" d="M596.31,-106.02C573.71,-116.87 541.69,-132.23 516.44,-144.34"/>
<polygon fill="none" stroke="black" points="514.63,-141.32 507.13,-148.8 517.66,-147.64 514.63,-141.32"/>
</g>
<!-- 2 -->
<g id="node2" class="node">
<title>2</title>
<g id="a_node2"><a xlink:href="../code/linkcheck/linkcheck.checker.fileurl.html" xlink:title="FileUrl" target="_blank">
<polygon fill="none" stroke="black" points="670.5,-73.5 670.5,-109.5 726.5,-109.5 726.5,-73.5 670.5,-73.5"/>
<text text-anchor="middle" x="698.5" y="-87.8" font-family="Times,serif" font-size="14.00">FileUrl</text>
</a>
</g>
</g>
<!-- 2&#45;&gt;13 -->
<g id="edge2" class="edge">
<title>2&#45;&gt;13</title>
<path fill="none" stroke="black" d="M670.42,-106.35C667.44,-107.65 664.42,-108.89 661.5,-110 612.91,-128.38 555.14,-144.16 517.25,-153.72"/>
<polygon fill="none" stroke="black" points="515.96,-150.44 507.11,-156.25 517.66,-157.23 515.96,-150.44"/>
</g>
<!-- 3 -->
<g id="node3" class="node">
<title>3</title>
<g id="a_node3"><a xlink:href="../code/linkcheck/linkcheck.checker.ftpurl.html" xlink:title="FtpUrl" target="_blank">
<polygon fill="none" stroke="black" points="288.5,-0.5 288.5,-36.5 342.5,-36.5 342.5,-0.5 288.5,-0.5"/>
<text text-anchor="middle" x="315.5" y="-14.8" font-family="Times,serif" font-size="14.00">FtpUrl</text>
</a>
</g>
</g>
<!-- 6 -->
<g id="node6" class="node">
<title>6</title>
<g id="a_node6"><a xlink:href="../code/linkcheck/linkcheck.checker.internpaturl.html" xlink:title="InternPatternUrl" target="_blank">
<polygon fill="none" stroke="black" points="367,-73.5 367,-109.5 472,-109.5 472,-73.5 367,-73.5"/>
<text text-anchor="middle" x="419.5" y="-87.8" font-family="Times,serif" font-size="14.00">InternPatternUrl</text>
</a>
</g>
</g>
<!-- 3&#45;&gt;6 -->
<g id="edge3" class="edge">
<title>3&#45;&gt;6</title>
<path fill="none" stroke="black" d="M340.41,-36.51C354.07,-45.83 371.2,-57.53 386.02,-67.64"/>
<polygon fill="none" stroke="black" points="384.2,-70.64 394.43,-73.39 388.15,-64.86 384.2,-70.64"/>
</g>
<!-- 10 -->
<g id="node10" class="node">
<title>10</title>
<g id="a_node10"><a xlink:href="../code/linkcheck/linkcheck.checker.proxysupport.html" xlink:title="ProxySupport" target="_blank">
<polygon fill="none" stroke="black" points="89.5,-73.5 89.5,-109.5 181.5,-109.5 181.5,-73.5 89.5,-73.5"/>
<text text-anchor="middle" x="135.5" y="-87.8" font-family="Times,serif" font-size="14.00">ProxySupport</text>
</a>
</g>
</g>
<!-- 3&#45;&gt;10 -->
<g id="edge4" class="edge">
<title>3&#45;&gt;10</title>
<path fill="none" stroke="black" d="M288.16,-30.28C261.76,-40.7 221.06,-56.75 188.33,-69.66"/>
<polygon fill="none" stroke="black" points="186.91,-66.46 178.89,-73.39 189.48,-72.97 186.91,-66.46"/>
</g>
<!-- 4 -->
<g id="node4" class="node">
<title>4</title>
<g id="a_node4"><a xlink:href="../code/linkcheck/linkcheck.checker.httpurl.html" xlink:title="HttpUrl" target="_blank">
<polygon fill="none" stroke="black" points="159,-0.5 159,-36.5 218,-36.5 218,-0.5 159,-0.5"/>
<text text-anchor="middle" x="188.5" y="-14.8" font-family="Times,serif" font-size="14.00">HttpUrl</text>
</a>
</g>
</g>
<!-- 4&#45;&gt;6 -->
<g id="edge5" class="edge">
<title>4&#45;&gt;6</title>
<path fill="none" stroke="black" d="M218.23,-28.64C253.19,-39.38 312.18,-57.52 357.29,-71.38"/>
<polygon fill="none" stroke="black" points="356.39,-74.76 366.98,-74.36 358.45,-68.07 356.39,-74.76"/>
</g>
<!-- 4&#45;&gt;10 -->
<g id="edge6" class="edge">
<title>4&#45;&gt;10</title>
<path fill="none" stroke="black" d="M175.67,-36.69C169.29,-45.23 161.45,-55.73 154.4,-65.18"/>
<polygon fill="none" stroke="black" points="151.39,-63.36 148.21,-73.47 157,-67.55 151.39,-63.36"/>
</g>
<!-- 5 -->
<g id="node5" class="node">
<title>5</title>
<g id="a_node5"><a xlink:href="../code/linkcheck/linkcheck.checker.ignoreurl.html" xlink:title="IgnoreUrl" target="_blank">
<polygon fill="none" stroke="black" points="499.5,-0.5 499.5,-36.5 569.5,-36.5 569.5,-0.5 499.5,-0.5"/>
<text text-anchor="middle" x="534.5" y="-14.8" font-family="Times,serif" font-size="14.00">IgnoreUrl</text>
</a>
</g>
</g>
<!-- 12 -->
<g id="node12" class="node">
<title>12</title>
<g id="a_node12"><a xlink:href="../code/linkcheck/linkcheck.checker.unknownurl.html" xlink:title="UnknownUrl" target="_blank">
<polygon fill="none" stroke="black" points="490.5,-73.5 490.5,-109.5 578.5,-109.5 578.5,-73.5 490.5,-73.5"/>
<text text-anchor="middle" x="534.5" y="-87.8" font-family="Times,serif" font-size="14.00">UnknownUrl</text>
</a>
</g>
</g>
<!-- 5&#45;&gt;12 -->
<g id="edge7" class="edge">
<title>5&#45;&gt;12</title>
<path fill="none" stroke="black" d="M534.5,-36.69C534.5,-44.71 534.5,-54.45 534.5,-63.43"/>
<polygon fill="none" stroke="black" points="531,-63.47 534.5,-73.47 538,-63.47 531,-63.47"/>
</g>
<!-- 6&#45;&gt;13 -->
<g id="edge8" class="edge">
<title>6&#45;&gt;13</title>
<path fill="none" stroke="black" d="M433.3,-109.69C440.23,-118.32 448.76,-128.94 456.4,-138.47"/>
<polygon fill="none" stroke="black" points="453.84,-140.86 462.83,-146.47 459.3,-136.48 453.84,-140.86"/>
</g>
<!-- 7 -->
<g id="node7" class="node">
<title>7</title>
<g id="a_node7"><a xlink:href="../code/linkcheck/linkcheck.checker.itmsservicesurl.html" xlink:title="ItmsServicesUrl" target="_blank">
<polygon fill="none" stroke="black" points="745,-73.5 745,-109.5 850,-109.5 850,-73.5 745,-73.5"/>
<text text-anchor="middle" x="797.5" y="-87.8" font-family="Times,serif" font-size="14.00">ItmsServicesUrl</text>
</a>
</g>
</g>
<!-- 7&#45;&gt;13 -->
<g id="edge9" class="edge">
<title>7&#45;&gt;13</title>
<path fill="none" stroke="black" d="M744.8,-107.65C741.66,-108.47 738.54,-109.26 735.5,-110 658.93,-128.69 568.58,-146.37 517.37,-155.99"/>
<polygon fill="none" stroke="black" points="516.54,-152.59 507.36,-157.86 517.83,-159.47 516.54,-152.59"/>
</g>
<!-- 8 -->
<g id="node8" class="node">
<title>8</title>
<g id="a_node8"><a xlink:href="../code/linkcheck/linkcheck.checker.mailtourl.html" xlink:title="MailtoUrl" target="_blank">
<polygon fill="none" stroke="black" points="0,-73.5 0,-109.5 71,-109.5 71,-73.5 0,-73.5"/>
<text text-anchor="middle" x="35.5" y="-87.8" font-family="Times,serif" font-size="14.00">MailtoUrl</text>
</a>
</g>
</g>
<!-- 8&#45;&gt;13 -->
<g id="edge10" class="edge">
<title>8&#45;&gt;13</title>
<path fill="none" stroke="black" d="M71.11,-107.23C74.26,-108.26 77.42,-109.2 80.5,-110 207.75,-142.84 363.51,-156.37 435.91,-161.19"/>
<polygon fill="none" stroke="black" points="435.77,-164.69 445.97,-161.84 436.22,-157.7 435.77,-164.69"/>
</g>
<!-- 9 -->
<g id="node9" class="node">
<title>9</title>
<g id="a_node9"><a xlink:href="../code/linkcheck/linkcheck.checker.nntpurl.html" xlink:title="NntpUrl" target="_blank">
<polygon fill="none" stroke="black" points="199.5,-73.5 199.5,-109.5 261.5,-109.5 261.5,-73.5 199.5,-73.5"/>
<text text-anchor="middle" x="230.5" y="-87.8" font-family="Times,serif" font-size="14.00">NntpUrl</text>
</a>
</g>
</g>
<!-- 9&#45;&gt;13 -->
<g id="edge11" class="edge">
<title>9&#45;&gt;13</title>
<path fill="none" stroke="black" d="M261.76,-106.73C264.69,-107.9 267.63,-109.01 270.5,-110 326.79,-129.49 393.87,-145.65 435.84,-154.94"/>
<polygon fill="none" stroke="black" points="435.17,-158.38 445.68,-157.1 436.67,-151.54 435.17,-158.38"/>
</g>
<!-- 11 -->
<g id="node11" class="node">
<title>11</title>
<g id="a_node11"><a xlink:href="../code/linkcheck/linkcheck.checker.telneturl.html" xlink:title="TelnetUrl" target="_blank">
<polygon fill="none" stroke="black" points="280,-73.5 280,-109.5 349,-109.5 349,-73.5 280,-73.5"/>
<text text-anchor="middle" x="314.5" y="-87.8" font-family="Times,serif" font-size="14.00">TelnetUrl</text>
</a>
</g>
</g>
<!-- 11&#45;&gt;13 -->
<g id="edge12" class="edge">
<title>11&#45;&gt;13</title>
<path fill="none" stroke="black" d="M349.25,-107.73C374.84,-118.94 409.68,-134.22 436.44,-145.94"/>
<polygon fill="none" stroke="black" points="435.34,-149.28 445.9,-150.09 438.15,-142.87 435.34,-149.28"/>
</g>
<!-- 12&#45;&gt;13 -->
<g id="edge13" class="edge">
<title>12&#45;&gt;13</title>
<path fill="none" stroke="black" d="M520.46,-109.69C513.41,-118.32 504.73,-128.94 496.95,-138.47"/>
<polygon fill="none" stroke="black" points="494.03,-136.51 490.41,-146.47 499.45,-140.94 494.03,-136.51"/>
</g>
</g>
</svg>
